<svg id="visual" viewBox="0 0 960 540" width="960" height="540" xmlns="http://www.w3.org/2000/svg" xmlns:xlink="http://www.w3.org/1999/xlink" version="1.1"><rect x="0" y="0" width="960" height="540"></rect><defs><linearGradient id="grad1_0" x1="43.8%" y1="0%" x2="100%" y2="100%"><stop offset="14.444444444444446%" stop-color="#001220" stop-opacity="1"></stop><stop offset="85.55555555555554%" stop-color="#001220" stop-opacity="1"></stop></linearGradient></defs><defs><linearGradient id="grad2_0" x1="0%" y1="0%" x2="56.3%" y2="100%"><stop offset="14.444444444444446%" stop-color="#001220" stop-opacity="1"></stop><stop offset="85.55555555555554%" stop-color="#001220" stop-opacity="1"></stop></linearGradient></defs><g transform="translate(960, 0)"><path d="M0 540C-107.4 533.3 -214.8 526.7 -270 467.7C-325.2 408.6 -328.3 297.2 -364.6 210.5C-400.9 123.8 -470.5 61.9 -540 0L0 0Z" fill="#00FFFF"></path></g><g transform="translate(0, 540)"><path d="M0 -540C61.4 -469.5 122.8 -399.1 209.5 -362.9C296.2 -326.7 408.3 -324.8 467.7 -270C527 -215.2 533.5 -107.6 540 0L0 0Z" fill="#00FFFF"></path></g></svg>