<svg id="visual" viewBox="0 0 1920 300" width="1920" height="300" xmlns="http://www.w3.org/2000/svg" xmlns:xlink="http://www.w3.org/1999/xlink" version="1.1"><path d="M0 176L35.5 175.2C71 174.3 142 172.7 213.2 184.2C284.3 195.7 355.7 220.3 426.8 219.8C498 219.3 569 193.7 640 191.5C711 189.3 782 210.7 853.2 213.3C924.3 216 995.7 200 1066.8 184C1138 168 1209 152 1280 149C1351 146 1422 156 1493.2 176.7C1564.3 197.3 1635.7 228.7 1706.8 241.2C1778 253.7 1849 247.3 1884.5 244.2L1920 241L1920 301L1884.5 301C1849 301 1778 301 1706.8 301C1635.7 301 1564.3 301 1493.2 301C1422 301 1351 301 1280 301C1209 301 1138 301 1066.8 301C995.7 301 924.3 301 853.2 301C782 301 711 301 640 301C569 301 498 301 426.8 301C355.7 301 284.3 301 213.2 301C142 301 71 301 35.5 301L0 301Z" fill="#00FFFF" stroke-linecap="round" stroke-linejoin="miter"></path></svg>